<svg xmlns="http://www.w3.org/2000/svg" viewBox="0 0 1600 1000" role="img" aria-labelledby="title desc">
  <title id="title">Horizontal directional drilling jobsite</title>
  <desc id="desc">Industrial HDD equipment working on an underground utility installation site.</desc>
  <defs>
    <linearGradient id="sky" x1="0" x2="1" y1="0" y2="1">
      <stop offset="0" stop-color="#273849"/>
      <stop offset="1" stop-color="#17212b"/>
    </linearGradient>
  </defs>
  <rect width="1600" height="1000" fill="url(#sky)"/>
  <rect y="640" width="1600" height="360" fill="#2f3437"/>
  <path d="M0 690 C230 645 420 718 620 672 C850 620 1100 655 1600 610 L1600 1000 L0 1000 Z" fill="#3f4548"/>
  <rect x="220" y="520" width="540" height="150" rx="18" fill="#f59e0b"/>
  <rect x="350" y="430" width="250" height="120" rx="16" fill="#ea580c"/>
  <rect x="650" y="570" width="280" height="48" rx="24" fill="#101820"/>
  <circle cx="330" cy="710" r="86" fill="#111827"/>
  <circle cx="330" cy="710" r="42" fill="#64748b"/>
  <circle cx="710" cy="710" r="86" fill="#111827"/>
  <circle cx="710" cy="710" r="42" fill="#64748b"/>
  <path d="M920 594 C1035 600 1120 640 1225 725" fill="none" stroke="#f59e0b" stroke-width="18" stroke-linecap="round"/>
  <path d="M1225 725 C1320 800 1430 820 1530 805" fill="none" stroke="#94a3b8" stroke-width="10" stroke-linecap="round"/>
  <rect x="1060" y="715" width="390" height="32" rx="16" fill="#17212b"/>
  <circle cx="1200" cy="260" r="90" fill="#f59e0b" opacity=".18"/>
  <path d="M160 310 H560 M185 360 H500 M980 350 H1340" stroke="#e2e8f0" stroke-width="6" opacity=".18"/>
</svg>
