<svg xmlns="http://www.w3.org/2000/svg" viewBox="0 0 1200 800" role="img" aria-labelledby="title desc">
  <title id="title">Locator training</title>
  <desc id="desc">Underground path locator training for directional drilling crews.</desc>
  <rect width="1200" height="800" fill="#e2e8f0"/>
  <rect y="540" width="1200" height="260" fill="#17212b"/>
  <path d="M100 670 C300 580 460 730 620 635 C780 540 940 645 1100 600" fill="none" stroke="#f59e0b" stroke-width="20" stroke-linecap="round"/>
  <circle cx="390" cy="300" r="72" fill="#f59e0b"/>
  <rect x="320" y="380" width="140" height="190" rx="44" fill="#273849"/>
  <path d="M545 275 L655 520" stroke="#273849" stroke-width="18" stroke-linecap="round"/>
  <rect x="500" y="230" width="150" height="90" rx="14" fill="#17212b"/>
  <path d="M710 270 C790 210 910 210 990 270 M750 325 C815 280 885 280 950 325 M800 380 C840 355 880 355 920 380" fill="none" stroke="#ea580c" stroke-width="18" stroke-linecap="round"/>
</svg>
